<svg width="62" height="63" viewBox="0 0 62 63" fill="none" xmlns="http://www.w3.org/2000/svg">
<circle cx="31" cy="32" r="31" fill="#E7717D"/>
<path d="M31.0787 45.665C41.0143 45.665 49.0687 37.9609 49.0687 28.4575C49.0687 18.9541 41.0143 11.25 31.0787 11.25C21.1431 11.25 13.0887 18.9541 13.0887 28.4575C13.0887 37.9609 21.1431 45.665 31.0787 45.665Z" fill="#E8EAF6"/>
<path d="M49.9763 40.5063C49.9763 47.4176 45.7575 52.7613 40.5938 52.7613C35.43 52.7613 30.4125 47.2438 30.4125 40.3313C30.4125 33.4188 35.4625 27.9926 40.6263 27.9926C45.79 27.9926 49.9763 33.5938 49.9763 40.5063Z" fill="#9E9E9E"/>
<path d="M12.0237 40.5063C12.0237 47.4176 16.2425 52.7613 21.4062 52.7613C26.57 52.7613 31.5875 47.2438 31.5875 40.3313C31.5875 33.4188 26.5375 27.9926 21.3737 27.9926C16.21 27.9926 12.0237 33.5938 12.0237 40.5063Z" fill="#9E9E9E"/>
<path d="M31.0787 17.5074V51.1399L39.4562 47.3324C40.2837 46.9562 40.9062 46.2399 41.1625 45.3687L44.4737 34.1287V17.5074H31.0787Z" fill="#FFE0B2"/>
<path d="M31.0787 17.5074V51.1399L22.7012 47.3324C21.8737 46.9562 21.2512 46.2399 20.995 45.3687L17.6837 34.1287V17.5074H31.0787Z" fill="#FFE0B2"/>
<path d="M26.3862 38.0463V39.3763C26.3862 39.5175 26.37 39.6425 26.3387 39.7825C26.1662 40.8625 25.2287 41.675 24.1012 41.7063H24.0387C22.9912 41.7063 22.0837 41.0175 21.8012 39.985L21.6137 39.2963L21.4725 38.7963C21.1437 37.6388 21.7537 36.4338 22.865 35.9963L23.1937 35.8713C24.7275 35.2625 26.3862 36.4038 26.3862 38.0463Z" fill="#5E35B1"/>
<path d="M31.0788 43.3187V47.75H30.7138C29.1875 47.75 27.95 46.5125 27.95 44.9862V43.3187H31.0788Z" fill="#FF9E80"/>
<path d="M40.6837 38.7975L40.5425 39.2975L40.355 39.9862C40.0737 41.0187 39.1662 41.7075 38.1175 41.7075H38.055C36.9287 41.6762 35.99 40.8625 35.8175 39.7837C35.7862 39.6425 35.77 39.5175 35.77 39.3775V38.0475C35.77 36.405 37.4287 35.2625 38.9612 35.8725L39.29 35.9975C40.4025 36.435 41.0125 37.64 40.6837 38.7975Z" fill="#5E35B1"/>
<path d="M26.3387 39.7825C26.1662 40.8625 25.2287 41.675 24.1012 41.7062H24.0387C22.9912 41.7062 22.0837 41.0175 21.8012 39.985L21.6137 39.2962C21.8637 38.78 22.3025 38.3575 22.865 38.1387L23.1937 37.9975C24.6025 37.4525 26.1037 38.3437 26.3387 39.7825Z" fill="#536DFE"/>
<path d="M40.5425 39.2975L40.355 39.9863C40.0738 41.0188 39.1663 41.7075 38.1175 41.7075H38.055C36.9288 41.6763 35.99 40.8625 35.8175 39.7838C36.0525 38.345 37.5538 37.4525 38.9613 38L39.29 38.1413C39.8538 38.36 40.2925 38.7813 40.5425 39.2975Z" fill="#536DFE"/>
<path d="M36.5537 39.4075C36.9859 39.4075 37.3362 39.0572 37.3362 38.625C37.3362 38.1929 36.9859 37.8425 36.5537 37.8425C36.1216 37.8425 35.7712 38.1929 35.7712 38.625C35.7712 39.0572 36.1216 39.4075 36.5537 39.4075Z" fill="white"/>
<path d="M31.0787 43.3187V47.75H31.4437C32.97 47.75 34.2075 46.5125 34.2075 44.9862V43.3187H31.0787Z" fill="#FF9E80"/>
<path d="M34.2075 43.3187H27.95V44.8825H34.2075V43.3187Z" fill="#FF6E40"/>
<path d="M22.475 39.4075C22.9072 39.4075 23.2575 39.0572 23.2575 38.625C23.2575 38.1929 22.9072 37.8425 22.475 37.8425C22.0428 37.8425 21.6925 38.1929 21.6925 38.625C21.6925 39.0572 22.0428 39.4075 22.475 39.4075Z" fill="white"/>
<path d="M43.4062 21.3662H25.4875C26.3 23.5362 27.64 25.82 29.4637 27.9512C34.415 33.7437 41.0187 36.2275 44.2112 33.4975C46.8137 31.2737 46.3462 26.275 43.4062 21.3662Z" fill="#FFD180"/>
<path d="M49.3675 34.5914C52.5605 31.8617 51.1345 24.953 46.1825 19.1604C41.2304 13.3678 34.6275 10.8848 31.4344 13.6145C28.2414 16.3443 29.6674 23.253 34.6194 29.0456C39.5715 34.8382 46.1744 37.3211 49.3675 34.5914Z" fill="#E8EAF6"/>
<path d="M30.1312 26.5125C29.8787 24.6862 29.8562 22.9013 30.02 21.1875H21.0075C20.5662 22.785 20.4175 24.4725 20.6562 26.195C21.5837 32.9 27.7687 37.6738 34.8875 37.5288C32.475 34.6775 30.7325 30.8575 30.1312 26.5125Z" fill="#FFD180"/>
<path d="M16.7087 18.422C14.9058 21.227 15.1673 24.6084 17.2928 25.9746C19.4184 27.3407 22.603 26.1744 24.4059 23.3694C26.2088 20.5644 25.9473 17.183 23.8217 15.8168C21.6962 14.4507 18.5116 15.617 16.7087 18.422Z" fill="#E8EAF6"/>
<path d="M33.2363 19.2562C30.8613 18.735 28.98 16.7637 28.3063 14.215C25.2825 16.6537 23.355 20.3325 23.355 24.4487C23.355 31.2175 28.5663 36.7937 35.3013 37.6262C33.3963 34.4712 32.2513 30.4475 32.2513 26.0625C32.2513 23.6525 32.6088 21.3612 33.2363 19.2562Z" fill="#E8EAF6"/>
<path d="M32.25 3.75H29.75V18.75H32.25V3.75Z" fill="#FF9E80"/>
<path d="M26.625 8.625C26.625 8.625 27.1712 7.91 27.9925 7.405C28.4025 7.12375 28.8813 6.915 29.3938 6.74C29.9063 6.58375 30.4537 6.505 31 6.5C31.5462 6.50625 32.0938 6.58875 32.6062 6.745C32.8625 6.8125 33.11 6.93875 33.345 7.04375C33.58 7.135 33.8025 7.2775 34.0075 7.41C34.8275 7.91375 35.375 8.625 35.375 8.625V8.875C35.375 8.875 34.8275 8.91375 34.0075 8.9425C33.1875 8.9575 32.0938 8.97875 31 9C29.9062 8.97875 28.8125 8.95875 27.9925 8.9425C27.1712 8.915 26.625 8.875 26.625 8.875V8.625Z" fill="#FF9E80"/>
<path d="M28.5912 17.8751L31 21.5338L33.4088 17.8751L31 15.4663L28.5912 17.8751Z" fill="#FF9E80"/>
<path d="M29.015 4.08251L31 1.0675L32.985 4.08251L31 6.0675L29.015 4.08251Z" fill="#FF9E80"/>
<path d="M31 10C23.4062 10 17.25 11.6787 17.25 13.75C17.25 15.105 19.8925 16.2875 23.8387 16.9462L24.6175 16.1675C23.1537 15.9112 22.25 15.5675 22.25 15.1875C22.25 14.3937 26.1675 13.75 31 13.75C35.8325 13.75 39.75 14.3937 39.75 15.1875C39.75 15.5675 38.8475 15.9112 37.3825 16.1687L38.1613 16.9475C42.1075 16.2875 44.75 15.105 44.75 13.75C44.75 11.6787 38.5938 10 31 10Z" fill="#FF9E80"/>
<path d="M24.0975 16.9737C24.607 16.9737 25.02 16.7768 25.02 16.5337C25.02 16.2907 24.607 16.0938 24.0975 16.0938C23.588 16.0938 23.175 16.2907 23.175 16.5337C23.175 16.7768 23.588 16.9737 24.0975 16.9737Z" fill="#FF9E80"/>
<path d="M37.8475 16.9737C38.357 16.9737 38.77 16.7768 38.77 16.5337C38.77 16.2907 38.357 16.0938 37.8475 16.0938C37.338 16.0938 36.925 16.2907 36.925 16.5337C36.925 16.7768 37.338 16.9737 37.8475 16.9737Z" fill="#FF9E80"/>
<path d="M37.3475 56C44.4988 55.8512 49.685 49.1375 48.0225 42.1812L44.1313 25.8962L53.685 32.155L55.7313 42.2362C57.865 52.7425 46.8288 61.005 37.3475 56Z" fill="#CFD8DC"/>
<path d="M39.2913 27.48L42.6438 41.0112C43.8088 45.7137 40.8863 50.4575 36.1625 51.5312L38.5738 52.7262C43.595 55.2137 49.41 51.2737 48.9625 45.6875L47.5025 27.48H39.2913Z" fill="#E8EAF6"/>
<path d="M61 29.0912L60.695 29.2262C57.4725 30.6587 53.6875 29.595 51.6837 26.6937L46.91 20.06C46.6462 19.6937 46.22 19.4787 45.7687 19.485L41.3987 19.5475L44.34 26.7487C47.0412 33.365 55.72 34.9 60.5262 29.6125L61 29.0912Z" fill="#E8EAF6"/>
<path d="M24.6525 56C17.5013 55.8512 12.315 49.1375 13.9775 42.1812L17.8688 25.8962L8.31501 32.155L6.26876 42.2362C4.13501 52.7425 15.1713 61.005 24.6525 56Z" fill="#CFD8DC"/>
<path d="M1 29.0912L1.305 29.2262C4.5275 30.6587 8.3125 29.595 10.3162 26.6937L15.09 20.06C15.3538 19.6937 15.78 19.4787 16.2313 19.485L20.6012 19.5475L17.6613 26.75C14.96 33.3662 6.28125 34.9012 1.475 29.6137L1 29.0912Z" fill="#E8EAF6"/>
<path d="M22.7087 27.4799L19.3562 41.0112C18.1912 45.7137 21.1137 50.4574 25.8375 51.5312L23.425 52.7249C18.4037 55.2124 12.5887 51.2724 13.0362 45.6862L14.4962 27.4787L24.2575 22.3149L22.7087 27.4799Z" fill="#E8EAF6"/>
</svg>
